<svg width="22" height="22" viewBox="0 0 22 22" fill="none" xmlns="http://www.w3.org/2000/svg">
<g opacity="0.6">
<circle cx="3.54155" cy="3.54155" r="3.54155" transform="matrix(-1 0 0 1 12.4219 3.17188)" stroke="white" stroke-width="1.32808"/>
<path d="M2.6826 15.5091C2.6826 14.7473 3.16147 14.0678 3.87884 13.8116V13.8116C7.11311 12.6565 10.6475 12.6565 13.8818 13.8116V13.8116C14.5992 14.0678 15.078 14.7473 15.078 15.5091V16.6738C15.078 17.7252 14.1469 18.5328 13.1061 18.3841L12.261 18.2634C10.0186 17.943 7.74201 17.943 5.49957 18.2634L4.65454 18.3841C3.61377 18.5328 2.6826 17.7252 2.6826 16.6738V15.5091Z" stroke="white" stroke-width="1.32808"/>
<path d="M15.078 10.2549H18.6196" stroke="white" stroke-width="1.32808" stroke-linecap="round" stroke-linejoin="round"/>
<path d="M16.8488 8.48384L16.8488 12.0254" stroke="white" stroke-width="1.32808" stroke-linecap="round" stroke-linejoin="round"/>
<circle cx="3.54155" cy="3.54155" r="3.54155" transform="matrix(-1 0 0 1 12.4213 3.17188)" stroke="white" stroke-width="1.32808"/>
<path d="M2.68207 15.5091C2.68207 14.7473 3.16093 14.0678 3.87831 13.8116V13.8116C7.11258 12.6565 10.647 12.6565 13.8812 13.8116V13.8116C14.5986 14.0678 15.0775 14.7473 15.0775 15.5091V16.6738C15.0775 17.7252 14.1463 18.5328 13.1055 18.3841L12.2605 18.2634C10.0181 17.943 7.74148 17.943 5.49903 18.2634L4.65401 18.3841C3.61323 18.5328 2.68207 17.7252 2.68207 16.6738V15.5091Z" stroke="white" stroke-width="1.32808"/>
</g>
</svg>
