<svg width="21" height="21" viewBox="0 0 21 21" fill="none" xmlns="http://www.w3.org/2000/svg">
<path d="M9.72368 2.95927C10.0983 2.33686 11.0006 2.33686 11.3752 2.95927L13.2468 6.06928C13.3814 6.29288 13.6009 6.45235 13.8551 6.51123L17.3913 7.33022C18.099 7.49412 18.3778 8.35231 17.9016 8.90088L15.5222 11.642C15.3511 11.839 15.2673 12.0971 15.2898 12.3571L15.6037 15.9732C15.6665 16.6969 14.9365 17.2273 14.2676 16.944L10.9254 15.528C10.6851 15.4262 10.4138 15.4262 10.1735 15.528L6.83127 16.944C6.1624 17.2273 5.43238 16.6969 5.49519 15.9732L5.80902 12.3571C5.83159 12.0971 5.74775 11.839 5.57668 11.642L3.19724 8.90088C2.72105 8.35231 2.99989 7.49412 3.70758 7.33022L7.24375 6.51123C7.49799 6.45235 7.71748 6.29288 7.85205 6.06928L9.72368 2.95927Z" stroke="#E4DBBA" stroke-opacity="0.686275" stroke-width="1.20468"/>
</svg>
