<svg width="21" height="22" viewBox="0 0 21 22" fill="none" xmlns="http://www.w3.org/2000/svg">
<path d="M9.59997 2.86991C10.0081 2.1918 10.9912 2.1918 11.3993 2.86991L13.4384 6.25826C13.585 6.50187 13.8242 6.67561 14.1011 6.73977L17.9538 7.63205C18.7248 7.81062 19.0286 8.74561 18.5098 9.34328L15.9174 12.3297C15.731 12.5444 15.6397 12.8255 15.6643 13.1088L16.0062 17.0486C16.0746 17.8371 15.2793 18.4149 14.5505 18.1062L10.9092 16.5635C10.6474 16.4526 10.3518 16.4526 10.09 16.5635L6.4487 18.1062C5.71997 18.4149 4.92461 17.8371 4.99304 17.0486L5.33497 13.1088C5.35955 12.8255 5.26821 12.5444 5.08182 12.3297L2.48944 9.34328C1.97062 8.74561 2.27442 7.81062 3.04545 7.63205L6.89809 6.73977C7.17509 6.67561 7.41422 6.50187 7.56083 6.25826L9.59997 2.86991Z" stroke="#DEDEDF" stroke-width="1.3125"/>
</svg>
