<svg width="24" height="24" viewBox="0 0 24 24" fill="none" xmlns="http://www.w3.org/2000/svg">
<path d="M5.74964 9.03784C5.00802 8.04903 5.71357 6.63794 6.94959 6.63794H16.7492C17.9852 6.63794 18.6908 8.04903 17.9492 9.03784V9.03784C17.4082 9.75905 17.1159 10.6362 17.1159 11.5377V17.1709C17.1159 19.1099 15.5439 20.6818 13.6049 20.6818H10.0939C8.15485 20.6818 6.58294 19.1099 6.58294 17.1709V11.5377C6.58294 10.6362 6.29054 9.75905 5.74964 9.03784V9.03784Z" stroke="#FDB9B9" stroke-width="1.31661"/>
<path d="M13.605 16.2933L13.605 11.0269" stroke="#FDB9B9" stroke-width="1.31661" stroke-linecap="round" stroke-linejoin="round"/>
<path d="M10.0937 16.2933L10.0938 11.0269" stroke="#FDB9B9" stroke-width="1.31661" stroke-linecap="round" stroke-linejoin="round"/>
<path d="M15.3603 6.63811L14.8827 5.20524C14.6438 4.4884 13.9729 4.00488 13.2173 4.00488H10.4814C9.72579 4.00488 9.05495 4.4884 8.816 5.20524L8.33838 6.63811" stroke="#FDB9B9" stroke-width="1.31661" stroke-linecap="round"/>
</svg>
